<?xml version="1.0" encoding="UTF-8"?>
<svg xmlns="http://www.w3.org/2000/svg" xmlns:xlink="http://www.w3.org/1999/xlink" viewBox="0 -11.55 90 90">
  <defs>
    <style>
      .cls-1 {
        fill: #32449a;
      }

      .cls-1, .cls-2, .cls-3, .cls-4, .cls-5, .cls-6 {
        stroke-width: 0px;
      }

      .cls-2 {
        fill: #2d4ea0;
      }

      .cls-3 {
        fill: url(#radial-gradient-2);
      }

      .cls-4 {
        fill: url(#radial-gradient);
      }

      .cls-5 {
        fill: url(#radial-gradient-3);
      }

      .cls-6 {
        fill: url(#radial-gradient-4);
      }
    </style>
    <radialGradient id="radial-gradient" cx="757.7" cy="45.8" fx="757.7" fy="45.8" r="39.3" gradientTransform="translate(-717.7 117.6) rotate(-7.5) scale(1 .6)" gradientUnits="userSpaceOnUse">
      <stop offset=".1" stop-color="#90cdb0"/>
      <stop offset=".1" stop-color="#87cbb3"/>
      <stop offset=".2" stop-color="#6fc8bd"/>
      <stop offset=".3" stop-color="#49c2ce"/>
      <stop offset=".4" stop-color="#14bae4"/>
      <stop offset=".4" stop-color="#00b7ed"/>
      <stop offset=".9" stop-color="#394097"/>
      <stop offset="1" stop-color="#372e88"/>
    </radialGradient>
    <radialGradient id="radial-gradient-2" cx="71.9" cy="25.6" fx="71.9" fy="25.6" r="22.8" gradientUnits="userSpaceOnUse">
      <stop offset="0" stop-color="#ddeab3"/>
      <stop offset="0" stop-color="#d8e7ab"/>
      <stop offset="0" stop-color="#cde196"/>
      <stop offset=".1" stop-color="#c8de8b"/>
      <stop offset=".1" stop-color="#bfdc8f"/>
      <stop offset=".2" stop-color="#a7d79a"/>
      <stop offset=".3" stop-color="#81d0ad"/>
      <stop offset=".3" stop-color="#4bc5c8"/>
      <stop offset=".4" stop-color="#07b8e9"/>
      <stop offset=".4" stop-color="#00b7ed"/>
      <stop offset=".9" stop-color="#394097"/>
      <stop offset="1" stop-color="#372e88"/>
    </radialGradient>
    <radialGradient id="radial-gradient-3" cx="71.9" cy="25.6" fx="71.9" fy="25.6" r="22.8" xlink:href="#radial-gradient-2"/>
    <radialGradient id="radial-gradient-4" cx="71.9" cy="25.6" fx="71.9" fy="25.6" r="22.8" xlink:href="#radial-gradient-2"/>
  </defs>
  <g>
    <g>
      <g>
        <path class="cls-2" d="M11.8,43.3c-1-3.1-1.6-6.4-1.6-9.9C10.2,15.7,24.7,1.3,42.4,1.3s31.5,13.7,32.2,30.9c0,0,.1,0,.2,0,.4,0,.7,0,1.1,0C75.2,14.4,60.4,0,42.4,0S9,15,9,33.5s.6,7.2,1.7,10.5c.4-.2.8-.4,1.1-.6Z"/>
        <path class="cls-2" d="M71.7,47.1c0,0-.1,0-.2,0-5.1,10.9-16.3,18.5-29.1,18.5s-20.9-5.7-26.7-14.2c-.3.3-.6.6-1,.9,6,8.8,16.2,14.7,27.7,14.7s25.5-8.3,30.7-20.2c-.5.1-.9.2-1.4.3Z"/>
      </g>
      <path class="cls-4" d="M79.9,35c-8.5-6.4-15.6,5.1-21.2,9.6-2.6,2.1-6.4,5.2-7.4,3.9-.5-.7.2-2.5,2.1-5.9,5.3-9.6-2.9-10.7-7-6.4-2.5,2.6-7.6,7.1-11.8,10.3-2.9,2.2-6.7,2.5-4.2-5.4,2.4-7.9-4.9-8.6-8.5-4.7C9.5,49.9-.7,45.4,0,52.8c.3,3.4,8.1,2.7,12.6-.2,6-3.9,10-13.5,12.1-10.9,2,2.4-3,10.1,2.1,10.2,1.7,0,3.2-.7,5.3-1.6,9.3-4.1,11.2-8.3,12.7-6.4,1.1,1.3-1.9,5.6-.4,8.8.5,1.1,2.8,2.7,6.2.8,5.3-2.9,12.6-5.4,15-6.1,7-1.8,12.1-2.4,15.5-4.6,1.8-1.2,2-5.5-1.3-8Z"/>
      <path class="cls-3" d="M86.2,19.8c-2.1,0-3.8,1.7-3.8,3.8s1.7,3.8,3.8,3.8,3.8-1.7,3.8-3.8-1.7-3.8-3.8-3.8ZM85.2,23.3c-.7,0-1.2-.5-1.2-1.2s.5-1.2,1.2-1.2,1.2.5,1.2,1.2-.5,1.2-1.2,1.2Z"/>
      <path class="cls-5" d="M78.7,23.6c-1.4,0-2.5,1.1-2.5,2.5s1.1,2.5,2.5,2.5,2.5-1.1,2.5-2.5-1.1-2.5-2.5-2.5ZM78.1,26.1c-.5,0-.9-.4-.9-.9s.4-.9.9-.9.9.4.9.9-.4.9-.9.9Z"/>
      <path class="cls-6" d="M84.6,30.5c-1.3,0-2.3,1-2.3,2.3s1,2.3,2.3,2.3,2.3-1,2.3-2.3-1-2.3-2.3-2.3ZM83.8,32.8c-.4,0-.8-.3-.8-.8s.3-.8.8-.8.8.3.8.8-.3.8-.8.8Z"/>
      <g>
        <path class="cls-1" d="M38.2,22.8l.5-1h.4l.2,4h-.4c-.3-1.1-.7-1.9-1.1-2.5-.6-.7-1.2-1-2-1s-1.5.4-2,1.1c-.5.7-.8,2-.8,3.8s.3,2.6.9,3.4c.5.7,1.2,1,2.1,1s1.5-.3,2-.8c.5-.5.9-1.3,1.1-2.3h.5c-.1,1.2-.5,2.1-1.2,2.7-.7.6-1.5,1-2.5,1s-1.6-.2-2.3-.6c-.7-.4-1.2-1-1.7-1.8s-.6-1.6-.6-2.6.2-1.9.6-2.8c.4-.9,1-1.5,1.6-2,.7-.4,1.4-.7,2.2-.7s.8,0,1.2.2c.4.1.8.4,1.3.8Z"/>
        <path class="cls-1" d="M40.3,22h7.9l.2,3.3h-.5c-.2-1.1-.5-1.8-.8-2.2-.4-.4-.9-.6-1.5-.6h-1.9c-.2,0-.3,0-.4.1,0,0-.1.2-.1.4v3.5h.9c.5,0,.8-.2,1.1-.5.3-.3.4-.8.5-1.5h.5v4.6h-.5c0-.8-.2-1.3-.5-1.6-.3-.3-.7-.5-1.2-.5h-.8v3.9c0,.1,0,.3.1.3,0,0,.3.1.5.1h1.5c1.7,0,2.6-1.1,2.9-3.2h.5l-.2,3.7h-8.2v-.5h.7c.3,0,.4,0,.6-.1.1,0,.2-.2.2-.4v-7.9c0-.2,0-.3-.1-.4,0,0-.2-.1-.4-.1h-.8v-.5Z"/>
        <path class="cls-1" d="M54.2,21.8h.4l3.6,9.1c.1.4.4.6.9.6h.3v.5h-4v-.5h.3c.4,0,.7,0,.9-.1.1,0,.2-.2.2-.3s0-.2,0-.2l-.8-2.1h-3.9l-.5,1.2c-.1.3-.2.6-.2.8s.1.4.3.6c.2.2.5.2.9.2h.3v.5h-3.6v-.5c.4,0,.7,0,.9-.3.2-.2.4-.5.6-1l3.4-8.4ZM54,23.7l-1.8,4.4h3.5l-1.7-4.4Z"/>
        <path class="cls-1" d="M60.2,22h2.4l6,7.8v-5.6c0-.6-.1-1-.4-1.3-.2-.2-.6-.4-1.1-.4v-.5h3.5v.5c-.4,0-.6,0-.8.1-.2,0-.3.3-.5.5-.1.3-.2.5-.2.9v7.9h-.6l-6.2-8.1v6c0,.5.1.9.4,1.2.3.3.7.4,1.3.4v.5h-3.8v-.5c.5,0,.9-.2,1.1-.5.3-.3.4-.7.4-1.1v-6.7h-.1c-.2-.4-.4-.5-.5-.6-.1,0-.3,0-.5,0h-.4v-.5Z"/>
      </g>
      <path class="cls-1" d="M29,28.6c.7-1.3,1-2.7,1-4.3s-.3-3-1-4.2c-.7-1.2-1.6-2.2-2.7-2.9-1.2-.7-2.4-1-3.7-1s-2.4.4-3.5,1.1c-1.1.7-2,1.7-2.7,2.9-.6,1.2-1,2.7-1,4.2s.3,3,1,4.3c.7,1.3,1.6,2.3,2.7,3,1.1.7,2.3,1,3.5,1s2.5-.4,3.7-1.1c1.1-.7,2.1-1.7,2.7-3ZM25.2,31.3c-.7.5-1.6.8-2.5.8-1.4,0-2.5-.6-3.5-1.7-.9-1.1-1.4-3.2-1.4-6.1s.5-4.6,1.3-5.8c.9-1.2,2.1-1.8,3.6-1.8s1.8.3,2.5.8c.8.5,1.3,1.4,1.7,2.5.4,1.1.6,2.6.6,4.6s-.2,3.2-.6,4.3c-.4,1.1-1,1.9-1.7,2.5Z"/>
    </g>
  </g>
</svg>
